<?xml version="1.0" encoding="UTF-8" standalone="no"?>
<svg
   xmlns:dc="http://purl.org/dc/elements/1.1/"
   xmlns:cc="http://creativecommons.org/ns#"
   xmlns:rdf="http://www.w3.org/1999/02/22-rdf-syntax-ns#"
   xmlns:svg="http://www.w3.org/2000/svg"
   xmlns="http://www.w3.org/2000/svg"
   xmlns:sodipodi="http://sodipodi.sourceforge.net/DTD/sodipodi-0.dtd"
   xmlns:inkscape="http://www.inkscape.org/namespaces/inkscape"
   xml:space="preserve"
   version="1.1"
   style="clip-rule:evenodd;fill-rule:evenodd;image-rendering:optimizeQuality;shape-rendering:geometricPrecision;text-rendering:geometricPrecision"
   viewBox="0 0 2217 2217"
   x="0px"
   y="0px"
   id="svg2"
   inkscape:version="0.91 r"
   sodipodi:docname="food.svg"
   width="2217"
   height="2217"><metadata
     id="metadata18"><rdf:RDF><cc:Work
         rdf:about=""><dc:format>image/svg+xml</dc:format><dc:type
           rdf:resource="http://purl.org/dc/dcmitype/StillImage" /><dc:title></dc:title></cc:Work></rdf:RDF></metadata><sodipodi:namedview
     pagecolor="#ffffff"
     bordercolor="#666666"
     borderopacity="1"
     objecttolerance="10"
     gridtolerance="10"
     guidetolerance="10"
     inkscape:pageopacity="0"
     inkscape:pageshadow="2"
     inkscape:window-width="838"
     inkscape:window-height="480"
     id="namedview16"
     showgrid="false"
     fit-margin-top="0"
     fit-margin-left="0"
     fit-margin-right="0"
     fit-margin-bottom="0"
     inkscape:zoom="0.085160126"
     inkscape:cx="1316.9682"
     inkscape:cy="831.375"
     inkscape:window-x="362"
     inkscape:window-y="244"
     inkscape:window-maximized="0"
     inkscape:current-layer="svg2" /><defs
     id="defs4"><style
       type="text/css"
       id="style6">
   
    .fil0 {fill:black}
   
  </style></defs><g
     id="g8"><path
       class="fil0"
       d="m 1109,0 c 612,0 1108,496 1108,1109 0,418 -232,783 -574,972 l -2,-42 0,-3 c -2,-51 -3,-100 -4,-145 -4,-143 -9,-300 -3,-443 3,-67 37,-86 90,-132 52,-45 70,-70 79,-141 10,-73 1,-133 -6,-204 -6,-68 -11,-137 -17,-204 -11,-133 -28,-277 -33,-410 l -32,0 c 2,219 -2,439 0,658 0,33 3,66 -32,66 -35,1 -32,-30 -32,-62 1,-218 -4,-445 0,-661 l -35,-2 0,672 c 1,42 -2,56 -48,52 -22,-31 -16,-28 -16,-74 l 0,-649 -34,-1 0,581 c 0,44 19,173 -48,140 -22,-11 -15,-43 -15,-75 l 0,-646 -35,1 c -7,139 -70,705 -57,814 3,30 10,60 23,84 12,22 91,93 112,109 54,41 36,217 36,297 -1,110 -3,247 -8,394 l -3,82 c -128,52 -268,80 -414,80 -96,0 -190,-12 -278,-35 l -4,-69 0,-3 c -8,-181 -10,-346 -11,-458 0,-81 -2,-166 1,-247 4,-111 155,-83 248,-246 34,-60 50,-122 47,-200 C 1107,815 1039,605 959,496 930,457 876,392 833,371 801,356 764,352 728,360 c -73,16 -107,60 -142,108 -33,47 -64,96 -91,156 -77,173 -142,412 -8,578 44,54 74,69 142,105 26,14 56,35 68,53 21,31 13,74 14,115 4,157 0,378 -9,597 l -1,8 0,11 -2,45 0,0 0,3 C 289,1976 0,1576 0,1109 0,496 496,0 1109,0 Z"
       id="path10"
       inkscape:connector-curvature="0"
       style="fill:#000000" /></g><text
     x="0"
     y="2232"
     font-size="5px"
     font-weight="bold"
     id="text12"
     style="font-weight:bold;font-size:5px;font-family:'Helvetica Neue', Helvetica, Arial-Unicode, Arial, Sans-serif;fill:#000000">Created by Jenie Tomboc</text>
<text
     x="0"
     y="2237"
     font-size="5px"
     font-weight="bold"
     id="text14"
     style="font-weight:bold;font-size:5px;font-family:'Helvetica Neue', Helvetica, Arial-Unicode, Arial, Sans-serif;fill:#000000">from the Noun Project</text>
</svg>