<?xml version="1.0" encoding="UTF-8" standalone="no"?>
<svg
   xmlns:dc="http://purl.org/dc/elements/1.1/"
   xmlns:cc="http://creativecommons.org/ns#"
   xmlns:rdf="http://www.w3.org/1999/02/22-rdf-syntax-ns#"
   xmlns:svg="http://www.w3.org/2000/svg"
   xmlns="http://www.w3.org/2000/svg"
   xmlns:sodipodi="http://sodipodi.sourceforge.net/DTD/sodipodi-0.dtd"
   xmlns:inkscape="http://www.inkscape.org/namespaces/inkscape"
   xml:space="preserve"
   version="1.1"
   style="clip-rule:evenodd;fill-rule:evenodd;image-rendering:optimizeQuality;shape-rendering:geometricPrecision;text-rendering:geometricPrecision"
   viewBox="0 0 2217 2217"
   x="0px"
   y="0px"
   id="svg2"
   inkscape:version="0.91 r"
   sodipodi:docname="food.svg"
   width="2217"
   height="2217"><metadata
     id="metadata18"><rdf:RDF><cc:Work
         rdf:about=""><dc:format>image/svg+xml</dc:format><dc:type
           rdf:resource="http://purl.org/dc/dcmitype/StillImage" /><dc:title /></cc:Work></rdf:RDF></metadata><sodipodi:namedview
     pagecolor="#ffffff"
     bordercolor="#666666"
     borderopacity="1"
     objecttolerance="10"
     gridtolerance="10"
     guidetolerance="10"
     inkscape:pageopacity="0"
     inkscape:pageshadow="2"
     inkscape:window-width="1920"
     inkscape:window-height="1031"
     id="namedview16"
     showgrid="false"
     fit-margin-top="0"
     fit-margin-left="0"
     fit-margin-right="0"
     fit-margin-bottom="0"
     inkscape:zoom="0.17032025"
     inkscape:cx="3299.963"
     inkscape:cy="-196.66568"
     inkscape:window-x="1680"
     inkscape:window-y="32"
     inkscape:window-maximized="1"
     inkscape:current-layer="g8"
     inkscape:snap-page="true" /><defs
     id="defs4"><style
       type="text/css"
       id="style6">
   
    .fil0 {fill:black}
   
  </style></defs><g
     id="g8"><path
       style="fill:#000000;fill-opacity:0.2;stroke:#000000;stroke-opacity:1"
       d="M 0 0 L 0 1109 C 0 496 496 0 1109 0 L 0 0 z M 1109 0 C 1721 0 2217 496 2217 1109 L 2217 0 L 1109 0 z M 2217 1109 C 2217 1527 1985 1892 1643 2081 L 1641 2039 L 1641 2036 C 1639 1985 1638 1936 1637 1891 C 1633 1748 1628 1591 1634 1448 C 1637 1381 1671 1362 1724 1316 C 1776 1271 1794 1246 1803 1175 C 1813 1102 1804 1042 1797 971 C 1791 903 1786 834 1780 767 C 1769 634 1752 490 1747 357 L 1715 357 C 1717 576 1713 796 1715 1015 C 1715 1048 1718 1081 1683 1081 C 1648 1082 1651 1051 1651 1019 C 1652 801 1647 574 1651 358 L 1616 356 L 1616 1028 C 1617 1070 1614 1084 1568 1080 C 1546 1049 1552 1052 1552 1006 L 1552 357 L 1518 356 L 1518 937 C 1518 981 1537 1110 1470 1077 C 1448 1066 1455 1034 1455 1002 L 1455 356 L 1420 357 C 1413 496 1350 1062 1363 1171 C 1366 1201 1373 1231 1386 1255 C 1398 1277 1477 1348 1498 1364 C 1552 1405 1534 1581 1534 1661 C 1533 1771 1531 1908 1526 2055 L 1523 2137 C 1395 2189 1255 2217 1109 2217 L 2217 2217 L 2217 1109 z M 1109 2217 C 1013 2217 919 2205 831 2182 L 827 2113 L 827 2110 C 819 1929 817 1764 816 1652 C 816 1571 814 1486 817 1405 C 821 1294 972 1322 1065 1159 C 1099 1099 1115 1037 1112 959 C 1107 815 1039 605 959 496 C 930 457 876 392 833 371 C 801 356 764 352 728 360 C 655 376 621 420 586 468 C 553 515 522 564 495 624 C 418 797 353 1036 487 1202 C 531 1256 561 1271 629 1307 C 655 1321 685 1342 697 1360 C 718 1391 710 1434 711 1475 C 715 1632 711 1853 702 2072 L 701 2080 L 701 2091 L 699 2136 L 699 2139 C 289 1976 0 1576 0 1109 L 0 2217 L 1109 2217 z "
       id="path10" /></g><text
     x="0"
     y="2232"
     font-size="5px"
     font-weight="bold"
     id="text12"
     style="font-weight:bold;font-size:5px;font-family:'Helvetica Neue', Helvetica, Arial-Unicode, Arial, Sans-serif;fill:#000000">Created by Jenie Tomboc</text>
<text
     x="0"
     y="2237"
     font-size="5px"
     font-weight="bold"
     id="text14"
     style="font-weight:bold;font-size:5px;font-family:'Helvetica Neue', Helvetica, Arial-Unicode, Arial, Sans-serif;fill:#000000">from the Noun Project</text>
</svg>