<?xml version="1.0" encoding="UTF-8" standalone="no"?>
<svg
   xmlns:dc="http://purl.org/dc/elements/1.1/"
   xmlns:cc="http://creativecommons.org/ns#"
   xmlns:rdf="http://www.w3.org/1999/02/22-rdf-syntax-ns#"
   xmlns:svg="http://www.w3.org/2000/svg"
   xmlns="http://www.w3.org/2000/svg"
   xmlns:sodipodi="http://sodipodi.sourceforge.net/DTD/sodipodi-0.dtd"
   xmlns:inkscape="http://www.inkscape.org/namespaces/inkscape"
   version="1.1"
   x="0px"
   y="0px"
   viewBox="0 0 74 70.000069"
   id="svg4251"
   inkscape:version="0.91 r"
   sodipodi:docname="posts.svg"
   width="74"
   height="70.000069">
  <metadata
     id="metadata4265">
    <rdf:RDF>
      <cc:Work
         rdf:about="">
        <dc:format>image/svg+xml</dc:format>
        <dc:type
           rdf:resource="http://purl.org/dc/dcmitype/StillImage" />
        <dc:title></dc:title>
      </cc:Work>
    </rdf:RDF>
  </metadata>
  <defs
     id="defs4263" />
  <sodipodi:namedview
     pagecolor="#ffffff"
     bordercolor="#666666"
     borderopacity="1"
     objecttolerance="10"
     gridtolerance="10"
     guidetolerance="10"
     inkscape:pageopacity="0"
     inkscape:pageshadow="2"
     inkscape:window-width="1920"
     inkscape:window-height="1031"
     id="namedview4261"
     showgrid="false"
     inkscape:snap-page="true"
     inkscape:zoom="2.8284271"
     inkscape:cx="-37.276257"
     inkscape:cy="-30.299345"
     inkscape:window-x="1680"
     inkscape:window-y="32"
     inkscape:window-maximized="1"
     inkscape:current-layer="svg4251"
     fit-margin-top="0"
     fit-margin-left="0"
     fit-margin-right="0"
     fit-margin-bottom="0" />
  <g
     transform="translate(-13,-967.36213)"
     id="g4253">
    <path
       style="color:#000000;display:inline;overflow:visible;visibility:visible;fill:#000000;stroke:none;marker:none;enable-background:accumulate;fill-opacity:0.66666669"
       d="m 75,967.36213 0,63.00007 c 0,3.878 3.122,7 7,7 l -62,0 c -3.878,0 -7,-3.122 -7,-7 l 0,-63.00007 62,0 z m -10,10 -20,0 0,14 20,0 0,-14 z m -30,0 -12,0 c -1.10457,0 -2,0.8954 -2,2 0,1.1046 0.89543,2 2,2 l 12,0 c 1.10457,0 2,-0.8954 2,-2 0,-1.1046 -0.89543,-2 -2,-2 z m 52,10 0,43.00007 c 0,2.8046 -2.19541,5 -5,5 -2.80459,0 -5,-2.1954 -5,-5 l 0,-43.00007 10,0 z m -52,0 -12,0 c -1.10457,0 -2,0.8954 -2,2 0,1.1046 0.89543,2 2,2 l 12,0 c 1.10457,0 2,-0.8954 2,-2 0,-1.1046 -0.89543,-2 -2,-2 z m 30,12 -42,0 c -1.10457,0 -2,0.89537 -2,1.99997 0,1.1046 0.89543,2 2,2 l 42,0 c 1.10457,0 2,-0.8954 2,-2 0,-1.1046 -0.89543,-1.99997 -2,-1.99997 z m 0,10.99997 -42,0 c -1.10457,0 -2,0.8954 -2,2 0,1.1046 0.89543,2 2,2 l 42,0 c 1.10457,0 2,-0.8954 2,-2 0,-1.1046 -0.89543,-2 -2,-2 z m 0,11.0001 -42,0 c -1.10457,0 -2,0.8954 -2,2 0,1.1046 0.89543,2 2,2 l 42,0 c 1.10457,0 2,-0.8954 2,-2 0,-1.1046 -0.89543,-2 -2,-2 z"
       visibility="visible"
       display="inline"
       overflow="visible"
       id="path4255"
       inkscape:connector-curvature="0" />
  </g>
</svg>
