<?xml version="1.0" encoding="UTF-8" standalone="no"?>
<svg
   xmlns:dc="http://purl.org/dc/elements/1.1/"
   xmlns:cc="http://creativecommons.org/ns#"
   xmlns:rdf="http://www.w3.org/1999/02/22-rdf-syntax-ns#"
   xmlns:svg="http://www.w3.org/2000/svg"
   xmlns="http://www.w3.org/2000/svg"
   xmlns:sodipodi="http://sodipodi.sourceforge.net/DTD/sodipodi-0.dtd"
   xmlns:inkscape="http://www.inkscape.org/namespaces/inkscape"
   version="1.1"
   x="0px"
   y="0px"
   viewBox="0 0 420.97507 420.9676"
   id="svg4990"
   inkscape:version="0.91 r"
   sodipodi:docname="shelter.svg"
   width="420.97507"
   height="420.96765">
  <metadata
     id="metadata5004">
    <rdf:RDF>
      <cc:Work
         rdf:about="">
        <dc:format>image/svg+xml</dc:format>
        <dc:type
           rdf:resource="http://purl.org/dc/dcmitype/StillImage" />
        <dc:title></dc:title>
      </cc:Work>
    </rdf:RDF>
  </metadata>
  <defs
     id="defs5002" />
  <sodipodi:namedview
     pagecolor="#ffffff"
     bordercolor="#666666"
     borderopacity="1"
     objecttolerance="10"
     gridtolerance="10"
     guidetolerance="10"
     inkscape:pageopacity="0"
     inkscape:pageshadow="2"
     inkscape:window-width="1920"
     inkscape:window-height="1031"
     id="namedview5000"
     showgrid="false"
     fit-margin-top="0"
     fit-margin-left="0"
     fit-margin-right="0"
     fit-margin-bottom="0"
     inkscape:snap-page="true"
     inkscape:zoom="1.3350176"
     inkscape:cx="371.684"
     inkscape:cy="195.648"
     inkscape:window-x="1680"
     inkscape:window-y="32"
     inkscape:window-maximized="1"
     inkscape:current-layer="svg4990" />
  <path
     style="opacity:1;fill:#000000;fill-opacity:0.2;fill-rule:evenodd;stroke:none;stroke-width:1;stroke-linecap:butt;stroke-linejoin:miter;stroke-miterlimit:50;stroke-dasharray:none;stroke-opacity:1"
     d="M 0,-7.5330158e-6 0,210.48381 C 6.2e-4,94.234163 94.241599,-0.00348753 210.49124,-7.5330158e-6 l -210.49124,0 z m 210.49124,0 C 326.73799,6.0246698e-4 420.97446,94.23706 420.97507,210.48381 l 0,-210.4838175330158 -210.48383,0 z M 420.97507,210.48381 c -0.10443,68.21751 -33.26271,132.15408 -88.96243,171.53912 l 0,-168.68372 -121.51398,-102.52743 -121.513988,102.52743 0,168.84686 C 33.22956,342.77263 0.05658,278.76301 0,210.48381 l 0,210.48383 210.49124,0 c -37.44272,-0.0778 -74.18697,-10.14198 -106.4434,-29.15478 l 212.82005,0 c -32.23691,19.00133 -68.95659,29.06512 -106.37665,29.15478 l 210.48383,0 0,-210.48383 z M 210.60249,80.396203 c -0.27242,-0.0023 -0.54475,0.01025 -0.81583,0.03721 -1.5745,0.134463 -3.06785,0.756706 -4.27198,1.77999 L 46.02758,218.91664 c -7.73598,6.64041 2.2894,18.21734 9.967944,11.5106 L 210.49866,97.995985 365.00179,230.42724 c 7.67858,6.70723 17.70442,-4.87023 9.96794,-11.5106 L 215.48263,82.213407 c -1.36174,-1.161845 -3.09011,-1.805386 -4.88014,-1.817075 z m 64.45047,15.226333 0,27.530514 30.3785,26.10652 0,-53.637034 -30.3785,0 z m -117.71667,144.297854 45.56774,0 0,45.56775 -45.56774,0 0,-45.56775 z m 60.75699,0 45.56775,0 0,45.56775 -45.56775,0 0,-45.56775 z m -60.75699,60.75699 45.56774,0 0,45.56775 -45.56774,0 0,-45.56775 z m 60.75699,0 45.56775,0 0,45.56775 -45.56775,0 0,-45.56775 z"
     id="rect5550"
     inkscape:connector-curvature="0" />
  <g
     transform="matrix(3.797312,0,0,3.797312,20.63083,-3570.1768)"
     id="g4992" />
</svg>
