<?xml version="1.0" encoding="UTF-8" standalone="no"?>
<svg
   xmlns:dc="http://purl.org/dc/elements/1.1/"
   xmlns:cc="http://creativecommons.org/ns#"
   xmlns:rdf="http://www.w3.org/1999/02/22-rdf-syntax-ns#"
   xmlns:svg="http://www.w3.org/2000/svg"
   xmlns="http://www.w3.org/2000/svg"
   xmlns:sodipodi="http://sodipodi.sourceforge.net/DTD/sodipodi-0.dtd"
   xmlns:inkscape="http://www.inkscape.org/namespaces/inkscape"
   version="1.1"
   x="0px"
   y="0px"
   viewBox="0 0 775.42383 775.42373"
   id="svg4990"
   inkscape:version="0.91 r"
   sodipodi:docname="unknown.svg"
   width="775.42383"
   height="775.42383">
  <metadata
     id="metadata5004">
    <rdf:RDF>
      <cc:Work
         rdf:about="">
        <dc:format>image/svg+xml</dc:format>
        <dc:type
           rdf:resource="http://purl.org/dc/dcmitype/StillImage" />
        <dc:title></dc:title>
      </cc:Work>
    </rdf:RDF>
  </metadata>
  <defs
     id="defs5002" />
  <sodipodi:namedview
     pagecolor="#ffffff"
     bordercolor="#666666"
     borderopacity="1"
     objecttolerance="10"
     gridtolerance="10"
     guidetolerance="10"
     inkscape:pageopacity="0"
     inkscape:pageshadow="2"
     inkscape:window-width="1920"
     inkscape:window-height="1031"
     id="namedview5000"
     showgrid="false"
     fit-margin-top="0"
     fit-margin-left="0"
     fit-margin-right="0"
     fit-margin-bottom="0"
     inkscape:snap-page="true"
     inkscape:zoom="0.944"
     inkscape:cx="586.5917"
     inkscape:cy="346.35085"
     inkscape:window-x="1680"
     inkscape:window-y="32"
     inkscape:window-maximized="1"
     inkscape:current-layer="svg4990"
     inkscape:snap-center="true"
     inkscape:snap-object-midpoints="true"
     inkscape:snap-text-baseline="true" />
  <path
     style="opacity:1;fill:#000000;fill-opacity:0.2;fill-rule:evenodd;stroke:none;stroke-width:1;stroke-linecap:butt;stroke-linejoin:miter;stroke-miterlimit:50;stroke-dasharray:none;stroke-opacity:1"
     d="M 0 0 L 0 387.71289 A 387.71194 387.71194 0 0 1 387.71289 0 L 0 0 z M 387.71289 0 A 387.71194 387.71194 0 0 1 775.42383 387.71289 L 775.42383 0 L 387.71289 0 z M 775.42383 387.71289 A 387.71194 387.71194 0 0 1 387.71289 775.42383 L 775.42383 775.42383 L 775.42383 387.71289 z M 387.71289 775.42383 A 387.71194 387.71194 0 0 1 0 387.71289 L 0 775.42383 L 387.71289 775.42383 z M 387.70898 90.041016 L 90.041016 387.70898 L 387.71484 685.38477 L 685.38477 387.71484 L 387.70898 90.041016 z "
     transform="translate(0,-6.1035156e-5)"
     id="rect5573" />
</svg>
